<svg version="1" xmlns="http://www.w3.org/2000/svg" viewBox="0 0 1920.000000 417.000000"><path d="M236.5 1.1c-13.7.5-27 1.3-29.5 1.8-2.5.6-15 1.5-27.7 2.2C166.5 5.8 156 6.6 156 7c0 .4-5.7 1.1-12.7 1.5-7.1.4-13.2 1.1-13.8 1.5-.5.4-8.1 1.3-16.8 2-8.6.8-15.7 1.7-15.7 2.1 0 .3-3.9 1-8.7 1.4-4.9.4-9.2 1.1-9.8 1.5-.5.4-6.3 1.3-12.7 2-6.5.7-11.8 1.6-11.8 2 0 .4-3.4 1.1-7.5 1.5-4.1.4-7.5 1-7.5 1.5 0 .4-3.2 1.1-7 1.5-3.9.4-7.2 1.1-7.5 1.5-.3.5-4.6 1.4-9.5 2.1-5 .7-9 1.6-9 2.1 0 .4-1.3.8-3 .8H0v385h1920V63l-8.2.6c-4.6.4-8.7 1-9.3 1.4-.5.5-8.8 1.4-18.2 2.1-9.5.7-17.3 1.6-17.3 2 0 .4-6.2 1-13.7 1.4-7.6.4-14 1.1-14.3 1.5-.3.4-7.5 1.3-16 1.9-8.5.6-20.2 1.5-26 2-5.8.5-19.8 1.2-31.2 1.7-11.4.4-20.5 1.1-20.2 1.5.3.5-4.3 1-10.3 1-5.9.1-20.9.5-33.3 1-74.2 2.9-149.3 2.9-237.5 0-14.3-.5-31.8-.9-38.8-1-7.1 0-12.6-.5-12.3-.9.3-.5-11.3-1.2-25.7-1.6-14.4-.5-32.3-1.2-39.7-1.7-7.4-.5-23.2-1.4-35-2-11.8-.7-21.7-1.5-22-1.9-.3-.4-9.4-1.1-20.2-1.5-10.9-.4-19.8-1-19.8-1.4 0-.4-11.6-1.3-25.7-2-14.2-.7-26.2-1.7-26.8-2.1-.5-.4-8.2-1.1-17-1.5-8.8-.4-16.2-1-16.5-1.4-.3-.4-10.8-1.3-23.5-2.1-12.6-.7-23.6-1.6-24.5-2.1-.8-.4-8.1-1.1-16.2-1.5-8.2-.3-14.8-.9-14.8-1.3s-9.6-1.3-21.2-2c-11.7-.7-22-1.7-22.8-2.1-.8-.4-7.6-1.1-15-1.5-7.4-.4-13.9-1-14.5-1.5-.5-.4-7.1-1.1-14.5-1.5-7.4-.4-13.9-1-14.5-1.5-.5-.4-10-1.3-21-2s-20.4-1.6-21-2c-.5-.4-7.2-1.1-14.7-1.5-7.6-.4-13.8-1-13.8-1.4 0-.4-9.3-1.3-20.7-2-11.5-.7-21.2-1.7-21.8-2.1-.5-.4-7.3-1.1-15-1.5-7.7-.4-14.2-1-14.5-1.4-.4-.7-10.9-1.6-58-5.2-8-.7-14.7-1.5-15-1.9-.3-.4-7-1.1-15-1.5-8-.4-14.9-1.1-15.5-1.5-.5-.4-11.1-1.3-23.5-2s-22.9-1.6-23.5-2c-.5-.4-8.3-1.1-17.2-1.5-9-.4-16.1-1-15.8-1.4.2-.4-11.6-1.3-26.3-2-14.7-.8-27.1-1.7-27.7-2.1-.5-.4-9.8-1.1-20.5-1.5-10.7-.4-19.7-1-20-1.4-.5-.8-48.8-3.2-109.5-5.5-40-1.6-175.7-1.8-217-.5z" fill="#3b013f"/></svg>