<svg version="1" xmlns="http://www.w3.org/2000/svg" width="106.667" height="106.667" viewBox="0 0 80.000000 80.000000"><path d="M31.6 2.2C27.8 5.1 26 9.7 26 17v6H13.1l-.6 3.2c-.3 1.8-1.6 13.2-3 25.3C8.1 63.6 6.7 75 6.4 76.7L5.9 80h68.2l-.5-3.3c-.3-1.7-1.7-13.1-3.1-25.2-1.4-12.1-2.7-23.5-3-25.3l-.6-3.2H54v-6C54 5.5 49.4 0 39.8 0c-3.8.1-6.1.7-8.2 2.2zm14.5 4.7c2.6 2.7 2.9 3.6 2.9 9.5V23H30v-3.8C30 6.4 38.8-.3 46.1 6.9zM26.2 33.2c.2 2.2.9 3.4 2.1 3.6 1.4.3 1.7-.4 1.7-3.2V30h9.5c9.2 0 9.5.1 9.5 2.2 0 3.2 1.5 5.2 3.4 4.5 1-.4 1.6-1.8 1.6-3.7 0-2.7.3-3 3-3 2.6 0 3 .4 3.5 3.7.3 2.1.8 5 1 6.5L62 43H18.1l.4-2.8c.2-1.5.7-4.4 1-6.5.5-3.3.9-3.7 3.5-3.7 2.5 0 2.9.4 3.2 3.2z"/></svg>