<svg width="35pt" height="34pt" viewBox="0 0 35 34" xmlns="http://www.w3.org/2000/svg"><path d="M5.38 6.4C11.11-.32 22.39-.85 28.71 5.33c6.58 5.78 6.98 16.91.87 23.18-4.94 5.57-13.47 6.6-20 3.35-2.86.67-5.69 1.48-8.56 2.13.8-2.75 1.51-5.52 2.27-8.27C.07 19.59.53 11.55 5.38 6.4m1.56 2.58c-3.81 4.57-3.64 11.31-.58 16.23-.45 1.61-.83 3.23-1.28 4.83 1.64-.44 3.31-.81 4.95-1.25 5.11 3 12.03 2.87 16.48-1.28 6.01-4.97 6.1-15.13.15-20.19C21.2 2.06 11.46 2.9 6.94 8.98z"/><path d="M9.59 15.57c-1.2-2.61.43-5.91 3.4-6.14.69 1.52 1.38 3.04 1.99 4.6-.4.58-1.19 1.76-1.59 2.34 1.57 2.23 3.67 4.02 6.09 5.27.76-.81 1.51-1.62 2.27-2.43 1.53.6 2.99 1.37 4.44 2.14-.47 2.03-1.83 4.04-4.19 3.9-5.52-.51-10.19-4.77-12.41-9.68z"/></svg>