<svg version="1" xmlns="http://www.w3.org/2000/svg" viewBox="0 0 1920.000000 404.000000"><path d="M323.5 1.5c-47.3.7-90 1.7-95 2.3-4.9.6-20.7 1.6-35 2.2-14.3.6-29.1 1.5-33 2-3.8.6-21.6 2.4-39.5 4s-35.4 3.5-39 4c-3.6.6-22.3 3.3-41.7 6-19.4 2.7-36.4 5.2-37.8 5.6l-2.5.6v375.6l7.7-2c4.3-1.1 12.5-3 18.3-4.3 5.8-1.3 16.4-3.7 23.5-5.4 23.1-5.3 36.6-8 78-15.7 17.1-3.1 30.7-5.4 60.5-10 55-8.5 144.6-17.5 213.5-21.4 118.3-6.6 255.9-6.6 408.5-.1 63.5 2.8 73.7 3.2 89.5 4.1 9.4.6 26.9 1.4 39 2 12.1.5 38.7 1.9 59 3 20.4 1.1 45.6 2.5 56 3 10.5.5 32.3 1.6 48.5 2.5 133.3 6.8 207.9 9 309 9 76.7 0 125.6-1.2 148-3.5 5.2-.5 16.7-1.4 25.5-2 19.8-1.3 37.3-3 74.5-7 30.6-3.3 73.1-9.8 99-15 5.2-1.1 14.5-2.9 20.5-4 37-7.1 100.6-24.7 134.5-37.4l6.5-2.4.3-135.1.2-135.1-2.2.5c-2.3.5-45.4 5.3-72.3 8.1-7.7.7-15.1 1.6-16.5 1.9-3 .6-48.3 4.2-70 5.5-8.5.5-20.9 1.4-27.5 2-11.6 1-28.6 1.7-94.7 4-45.3 1.6-125.8 1.9-188.3.8-30.2-.6-57.7-1.1-61-1.3-3.3-.1-18.4-.5-33.5-.9-15.1-.4-36.7-1.1-48-1.7-11.3-.5-29-1.1-39.5-1.4-10.4-.3-23.7-.9-29.5-1.5-5.8-.5-17.5-1.2-26-1.5-8.5-.3-22.5-1-31-1.6-8.5-.6-24.3-1.4-35-1.9s-26.7-1.4-35.5-1.9c-8.8-.6-31.1-2-49.5-3.2-18.4-1.1-45.5-2.9-60.2-4-14.7-1-30.7-1.9-35.5-1.9-4.9-.1-16.2-.7-25.3-1.6-9.1-.8-24.6-1.9-34.5-2.4-9.9-.5-27.2-1.7-38.5-2.5-11.3-.9-24.3-1.8-29-2-4.7-.2-19.7-1.1-33.5-1.9-13.7-.9-36.7-2.3-51-3.2-14.3-.9-34.1-2-44-2.5-9.9-.4-25.6-1.3-35-1.9-9.3-.6-28-1.5-41.5-2s-32.6-1.4-42.5-1.9c-22.3-1.3-86.8-3.4-111-3.6-9.9 0-29.5-.4-43.5-.7-14-.4-64.2 0-111.5.7z" fill="#0c9e98"/></svg>