<svg version="1" xmlns="http://www.w3.org/2000/svg" viewBox="0 0 1920.000000 313.000000"><path d="M321 1.1c-65.5.8-82 1.3-143.5 4.4-36.2 1.8-55.3 3.1-65 4.4-5.9.8-30.5 3.1-61 5.7-3.8.3-8.6.9-10.5 1.4-1.9.5-11.1 1.8-20.5 3S2.7 22.3 1.8 22.6C.1 23.1 0 30.9 0 168.1 0 247.8.2 313 .3 313c2.2 0 19.8-3.1 21.7-3.8 1.4-.5 6.6-1.5 11.5-2.1 5-.7 10.1-1.6 11.5-2.1 1.4-.5 8.6-1.9 16-3 25.8-4 36.5-5.8 44-7.3 4.1-.8 11.3-1.8 16-2.2 4.7-.4 9.2-1.1 10.1-1.6.9-.4 7.6-1.3 15-2 7.4-.6 14.3-1.5 15.4-2 1.1-.5 9-1.6 17.5-2.4 8.5-.8 21.4-2.1 28.5-2.9 7.2-.8 15.6-1.5 18.8-1.5 3.2-.1 6.6-.5 7.5-1 .9-.5 9.1-1.4 18.2-2 9.1-.7 19.4-1.6 23-2.1 3.6-.5 12.8-1.2 20.5-1.5 7.7-.3 16.9-1 20.5-1.5 7.4-1.1 39.4-3 70.5-4.1 99.3-3.5 103.9-3.6 196-3.9 33.6-.1 75.6.1 93.5.6 17.9.4 35 .7 38 .7 3-.1 18.8.3 35 .8s39.9 1.1 52.5 1.4c12.7.3 29.5 1 37.5 1.5s21 1 29 1 21.9.5 31 1c9.1.6 23.9 1.2 33 1.5 18.3.4 49.3 1.7 97.5 4 17.6.9 37 1.6 43 1.6 6.1 0 17.1.4 24.5.9 7.4.6 22.7 1.2 34 1.5 11.3.3 28.7 1 38.7 1.6 10 .6 18.6.8 19 .6.4-.3 9.8-.1 20.9.4 11 .4 31.9 1.1 46.5 1.4 41.4.8 94.6 1.7 114.9 1.9 31.8.3 175.8-2.3 190.5-3.4 7.7-.6 21.9-1.5 31.5-2.1 41.3-2.2 105.8-7.8 121.5-10.4 5-.8 15.8-2.2 24-3.1 8.3-.8 17.5-2.2 20.5-2.9 3-.8 15.2-2.8 27-4.5 11.8-1.7 22.9-3.5 24.5-4 1.7-.5 12.7-2.7 24.5-5s24.7-5 28.5-6.1c3.9-1 17.4-4.4 30-7.5 12.7-3 23.8-5.7 24.8-6 1.6-.5 1.7-6.5 1.7-107.5v-107l-3.2.5c-1.8.3-6.4.8-10.1 1.1-3.8.2-7.2.7-7.5.9-.6.4-12.5 1.5-49.2 4.6-6.3.6-21.2 1.7-33 2.5s-27.8 1.9-35.5 2.5c-16.2 1.2-66.2 3.5-108 5-105.6 3.8-311.4 2.8-429-2-13.2-.5-37-1.4-53-2-35.4-1.2-71.5-2.7-97.5-4-10.7-.6-35-1.7-54-2.5-19-.9-51.8-2.5-73-3.6-21.2-1.1-50.4-2.4-65-2.9-26.8-1-54.3-2.6-58.3-3.5-1.2-.2-15-.9-30.7-1.5-15.7-.5-33-1.2-38.5-1.5C732.9 8.4 617.1 4.3 564 3c-23.9-.6-45.9-1.3-48.9-1.6C504.5.5 386.4.2 321 1.1z" fill="#3b013f"/></svg>