<svg version="1" xmlns="http://www.w3.org/2000/svg" width="1821.333" height="361.333" viewBox="0 0 1366.000000 271.000000"><path d="M152 .6c-1.4.1-12.2.8-24 1.4-19.6 1-61.8 4.3-71.5 5.5-2.2.3-11.6 1.4-21 2.5-9.3 1.2-19.7 2.5-23 3-3.3.6-7.5 1.3-9.2 1.6l-3.3.5v127.4C0 212.6.2 270 .4 270s5.2-1.1 11.2-2.4c14.7-3.3 33.4-7 53.9-10.6 9.4-1.6 19.3-3.4 22-4 28.7-6.1 118.4-14.1 191-17 26.6-1.1 97.1-1.1 126.5 0 36.8 1.3 127.2 5.8 161 8 55.4 3.6 98.3 6.7 118 8.6 24.1 2.2 47.4 4.1 72.5 5.9 12.7.8 29.3 2 37 2.5 51.6 3.6 104.6 6.6 153.8 8.6 44 1.8 153.5 1.5 182.7-.5 55-3.8 89.4-7.4 120-12.5 26.4-4.5 86-17.6 88.5-19.6.6-.4 7-2.5 14.3-4.5l13.2-3.8V31.4l-9.7 1.3c-5.4.7-12.9 1.7-16.8 2.2-21.6 3-89 7.4-140.3 9.1-43.6 1.4-142.1 1.2-197.2-.5-61.5-1.9-141-5.8-173-8.4-21.1-1.8-51.1-4-74.5-5.6-26.9-1.8-43-2.9-71.5-5-52.7-3.8-64.7-4.8-79-6.1-31.6-3-82-6.6-142.5-10.4-102.3-6.3-152.2-8-234-7.8-40.1 0-74.1.2-75.5.4z"/></svg>